<?xml version="1.0" encoding="UTF-8" standalone="no"?>
<!DOCTYPE svg PUBLIC "-//W3C//DTD SVG 1.1//EN" "http://www.w3.org/Graphics/SVG/1.1/DTD/svg11.dtd">
<svg width="100%" height="100%" viewBox="0 0 35 35" version="1.1" xmlns="http://www.w3.org/2000/svg" xmlns:xlink="http://www.w3.org/1999/xlink" xml:space="preserve" xmlns:serif="http://www.serif.com/" style="fill-rule:evenodd;clip-rule:evenodd;stroke-linecap:round;">
    <path d="M5.833,27.708L5.833,7.292C5.833,5.692 7.15,4.375 8.75,4.375L28.292,4.375C28.772,4.375 29.167,4.77 29.167,5.25L29.167,24.375" style="fill:none;fill-rule:nonzero;stroke:black;stroke-width:2.2px;"/>
    <path d="M14.583,20.417C14.583,20.417 15.896,15.87 18.958,13.125M18.67,18.12L18.474,18.137C16.02,18.366 13.81,16.544 13.565,14.092C13.551,13.945 13.543,13.797 13.543,13.65C13.543,11.358 15.31,9.419 17.592,9.206L21.946,8.798C22.224,8.772 22.475,8.978 22.502,9.256L22.874,13.019C22.889,13.172 22.897,13.327 22.897,13.482C22.897,15.875 21.053,17.899 18.67,18.12Z" style="fill:none;fill-rule:nonzero;stroke:black;stroke-width:2.2px;stroke-linejoin:round;"/>
    <path d="M8.75,24.792L29.167,24.792M8.75,30.625L29.167,30.625L29.167,24.792" style="fill:none;fill-rule:nonzero;stroke:black;stroke-width:2.2px;"/>
    <path d="M8.75,30.625C7.15,30.625 5.833,29.308 5.833,27.708C5.833,26.108 7.15,24.792 8.75,24.792" style="fill:none;fill-rule:nonzero;stroke:black;stroke-width:2.2px;stroke-linejoin:round;"/>
</svg>
