<?xml version="1.0" encoding="UTF-8" standalone="no"?>
<!DOCTYPE svg PUBLIC "-//W3C//DTD SVG 1.1//EN" "http://www.w3.org/Graphics/SVG/1.1/DTD/svg11.dtd">
<svg width="100%" height="100%" viewBox="0 0 35 35" version="1.1" xmlns="http://www.w3.org/2000/svg" xmlns:xlink="http://www.w3.org/1999/xlink" xml:space="preserve" xmlns:serif="http://www.serif.com/" style="fill-rule:evenodd;clip-rule:evenodd;stroke-linecap:round;stroke-linejoin:round;">
    <g transform="matrix(0.797206,0,0,0.797206,3.56487,3.80967)">
        <path d="M17.5,9.297L19.695,6.828C20.248,6.205 21.042,5.849 21.875,5.849C22.708,5.849 23.502,6.205 24.055,6.828L31.819,15.563C32.797,16.663 32.797,18.338 31.819,19.438L24.055,28.174C23.502,28.796 22.708,29.153 21.875,29.153C21.042,29.153 20.248,28.796 19.695,28.174L17.5,25.702" style="fill:none;fill-rule:nonzero;stroke:black;stroke-width:2.2px;"/>
    </g>
    <g transform="matrix(0.797206,0,0,0.797206,3.56487,3.80967)">
        <path d="M23.069,19.438L15.305,28.174C14.752,28.796 13.958,29.153 13.125,29.153C12.292,29.153 11.498,28.796 10.945,28.174L3.181,19.438C2.203,18.338 2.203,16.662 3.181,15.562L10.945,6.826C11.498,6.204 12.292,5.847 13.125,5.847C13.958,5.847 14.752,6.204 15.305,6.826L23.069,15.562C24.047,16.662 24.047,18.338 23.069,19.438Z" style="fill:none;fill-rule:nonzero;stroke:black;stroke-width:2.2px;"/>
    </g>
</svg>
