<?xml version="1.0" encoding="UTF-8" standalone="no"?>
<!DOCTYPE svg PUBLIC "-//W3C//DTD SVG 1.1//EN" "http://www.w3.org/Graphics/SVG/1.1/DTD/svg11.dtd">
<svg width="100%" height="100%" viewBox="0 0 35 35" version="1.1" xmlns="http://www.w3.org/2000/svg" xmlns:xlink="http://www.w3.org/1999/xlink" xml:space="preserve" xmlns:serif="http://www.serif.com/" style="fill-rule:evenodd;clip-rule:evenodd;stroke-linecap:round;stroke-linejoin:round;">
    <path d="M30.625,5.25L30.625,29.75C30.625,30.23 30.23,30.625 29.75,30.625L5.25,30.625C4.77,30.625 4.375,30.23 4.375,29.75L4.375,5.25C4.375,4.77 4.77,4.375 5.25,4.375L29.75,4.375C30.23,4.375 30.625,4.77 30.625,5.25Z" style="fill:none;fill-rule:nonzero;stroke:black;stroke-width:2.2px;"/>
    <path d="M13.125,26.25C13.125,26.25 14.438,20.794 17.5,17.5M23.605,10.56L24.15,16.233C24.504,19.912 21.745,23.189 18.066,23.542C14.456,23.889 11.185,21.251 10.838,17.64C10.493,14.054 13.159,10.82 16.745,10.474L22.792,9.89C22.816,9.888 22.84,9.887 22.864,9.887C23.246,9.887 23.569,10.181 23.605,10.561L23.605,10.56Z" style="fill:none;fill-rule:nonzero;stroke:black;stroke-width:2.2px;"/>
</svg>
