<?xml version="1.0" encoding="UTF-8"?><svg width="35px" height="35px" stroke-width="1.51" viewBox="0 0 24 24" fill="none" xmlns="http://www.w3.org/2000/svg" color="#000000"><path d="M15 12v3M12 3v3M18 12v3M12 18h9M18 21h3M6 12h3M6 6.011L6.01 6M12 12.011l.01-.011M3 12.011L3.01 12M12 9.011L12.01 9M12 15.011l.01-.011M15 21.011l.01-.011M12 21.011l.01-.011M21 12.011l.01-.011M21 15.011l.01-.011M18 6.011L18.01 6M9 3.6v4.8a.6.6 0 01-.6.6H3.6a.6.6 0 01-.6-.6V3.6a.6.6 0 01.6-.6h4.8a.6.6 0 01.6.6zM21 3.6v4.8a.6.6 0 01-.6.6h-4.8a.6.6 0 01-.6-.6V3.6a.6.6 0 01.6-.6h4.8a.6.6 0 01.6.6zM6 18.011L6.01 18M9 15.6v4.8a.6.6 0 01-.6.6H3.6a.6.6 0 01-.6-.6v-4.8a.6.6 0 01.6-.6h4.8a.6.6 0 01.6.6z" stroke="#000000" stroke-width="1.51" stroke-linecap="round" stroke-linejoin="round"></path></svg>