<?xml version="1.0" encoding="UTF-8" standalone="no"?>
<!DOCTYPE svg PUBLIC "-//W3C//DTD SVG 1.1//EN" "http://www.w3.org/Graphics/SVG/1.1/DTD/svg11.dtd">
<svg width="100%" height="100%" viewBox="0 0 35 35" version="1.1" xmlns="http://www.w3.org/2000/svg" xmlns:xlink="http://www.w3.org/1999/xlink" xml:space="preserve" xmlns:serif="http://www.serif.com/" style="fill-rule:evenodd;clip-rule:evenodd;stroke-linecap:round;stroke-linejoin:round;">
    <path d="M28.088,14.14L30.107,27.265C30.13,27.412 30.141,27.56 30.141,27.708C30.141,29.307 28.826,30.624 27.227,30.625L7.773,30.625C6.173,30.625 4.856,29.308 4.856,27.708C4.856,27.56 4.867,27.412 4.89,27.265L6.91,14.14C7.128,12.723 8.36,11.666 9.794,11.667L25.206,11.667C26.639,11.666 27.871,12.723 28.089,14.14L28.088,14.14ZM20.85,10.582C20.887,6.451 19.136,5.026 17.536,5.026C15.936,5.026 13.86,6.089 14.186,10.545" style="fill:none;fill-rule:nonzero;stroke:black;stroke-width:2.2px;"/>
</svg>
